<svg xmlns="http://www.w3.org/2000/svg" viewBox="0 0 1440 320" preserveAspectRatio="xMidYMax slice">
  <defs>
    <linearGradient id="g" x1="0" y1="0" x2="0" y2="1">
      <stop offset="0%" stop-color="#0ea5e9" stop-opacity="0.45"/>
      <stop offset="100%" stop-color="#0ea5e9" stop-opacity="0.05"/>
    </linearGradient>
  </defs>
  <rect x="0" y="0" width="1440" height="320" fill="url(#g)"/>
  <g fill="#0ea5e9" fill-opacity="0.35">
    <path d="M0,256 L64,240 L96,192 L128,224 L160,160 L192,192 L224,128 L256,160 L288,96 L320,160 L352,144 L384,192 L416,176 L448,208 L480,160 L512,224 L544,192 L576,208 L608,176 L640,224 L672,192 L704,224 L736,160 L768,208 L800,192 L832,224 L864,192 L896,208 L928,144 L960,192 L992,160 L1024,224 L1056,176 L1088,208 L1120,192 L1152,224 L1184,208 L1216,240 L1248,192 L1280,224 L1312,208 L1344,240 L1376,224 L1440,256 L1440,320 L0,320 Z"/>
  </g>
</svg>


