<svg xmlns="http://www.w3.org/2000/svg" viewBox="0 0 32 32" width="32" height="32">
  <!-- Background circle with gradient -->
  <defs>
    <linearGradient id="bgGradient" x1="0%" y1="0%" x2="100%" y2="100%">
      <stop offset="0%" style="stop-color:#0ea5e9;stop-opacity:1" />
      <stop offset="100%" style="stop-color:#0284c7;stop-opacity:1" />
    </linearGradient>
  </defs>
  
  <!-- Background circle -->
  <circle cx="16" cy="16" r="15" fill="url(#bgGradient)" stroke="#0369a1" stroke-width="1.5"/>
  
  <!-- Main leaf symbol representing clean air and nature -->
  <path d="M16 6c-3 0-6 2-7 5-1 3-1 6 0 9 1 3 4 5 7 5s6-2 7-5c1-3 1-6 0-9-1-3-4-5-7-5z" fill="#10b981"/>
  
  <!-- Leaf vein -->
  <path d="M16 6v20" stroke="#059669" stroke-width="1" fill="none"/>
  
  <!-- Air/wind movement lines -->
  <path d="M6 10c2-1 4-1 6 0s4 1 6 0" stroke="#ffffff" stroke-width="1.5" fill="none" stroke-linecap="round" opacity="0.9"/>
  <path d="M6 16c2-1 4-1 6 0s4 1 6 0" stroke="#ffffff" stroke-width="1.5" fill="none" stroke-linecap="round" opacity="0.7"/>
  <path d="M6 22c2-1 4-1 6 0s4 1 6 0" stroke="#ffffff" stroke-width="1.5" fill="none" stroke-linecap="round" opacity="0.5"/>
  
  <!-- Breathing/air quality indicators -->
  <circle cx="10" cy="12" r="0.8" fill="#ffffff"/>
  <circle cx="22" cy="16" r="0.8" fill="#ffffff"/>
  <circle cx="12" cy="24" r="0.8" fill="#ffffff"/>
  
  <!-- Small decorative elements -->
  <circle cx="24" cy="10" r="0.5" fill="#ffffff" opacity="0.6"/>
  <circle cx="8" cy="18" r="0.5" fill="#ffffff" opacity="0.6"/>
</svg>
